<svg width="1080" height="1080" viewBox="0 0 1080 1080" fill="none" xmlns="http://www.w3.org/2000/svg">
<rect x="399.938" y="128.859" width="124.561" height="59.0774" rx="10" transform="rotate(140.92 399.938 128.859)" fill="#CECECE" fill-opacity="0.8"/>
<rect x="780.336" y="91" width="124.561" height="59.0774" rx="10" transform="rotate(24.3257 780.336 91)" fill="#CECECE" fill-opacity="0.8"/>
<rect x="85" y="322.754" width="124.561" height="59.0774" rx="10" transform="rotate(-9.59078 85 322.754)" fill="#CECECE" fill-opacity="0.8"/>
<rect x="78.1094" y="620.316" width="124.561" height="59.0774" rx="10" transform="rotate(-44.0203 78.1094 620.316)" fill="#CECECE" fill-opacity="0.8"/>
<rect x="884.25" y="468.668" width="124.561" height="59.0774" rx="10" transform="rotate(-118.402 884.25 468.668)" fill="#CECECE" fill-opacity="0.8"/>
<rect x="967.086" y="846.457" width="124.561" height="59.0774" rx="10" transform="rotate(-99.28 967.086 846.457)" fill="#CECECE" fill-opacity="0.8"/>
<rect x="166.25" y="1012.67" width="124.561" height="59.0774" rx="10" transform="rotate(-118.402 166.25 1012.67)" fill="#CECECE" fill-opacity="0.8"/>
<rect x="264" y="552" width="254" height="254" rx="40" fill="#33CB58"/>
<rect x="553" y="552" width="254" height="254" rx="40" fill="#4184DD"/>
<rect x="409" y="264" width="253" height="254" rx="40" fill="#EB2240"/>
<rect x="825.18" y="975.371" width="124.561" height="59.0774" rx="10" transform="rotate(171.13 825.18 975.371)" fill="#CECECE" fill-opacity="0.8"/>
</svg>